Coordinates
version=1
nRows=13
nColumns=40
inDegrees=yes

Units are S.I. units (second, meters, Newtons, ...)
Angles are in degrees.

endheader
time	pelvis_tilt	pelvis_list	pelvis_rotation	pelvis_tx	pelvis_ty	pelvis_tz	hip_flexion_r	hip_adduction_r	hip_rotation_r	knee_angle_r	knee_angle_r_beta	ankle_angle_r	subtalar_angle_r	mtp_angle_r	hip_flexion_l	hip_adduction_l	hip_rotation_l	knee_angle_l	knee_angle_l_beta	ankle_angle_l	subtalar_angle_l	mtp_angle_l	lumbar_extension	lumbar_bending	lumbar_rotation	arm_flex_r	arm_add_r	arm_rot_r	elbow_flex_r	pro_sup_r	wrist_flex_r	wrist_dev_r	arm_flex_l	arm_add_l	arm_rot_l	elbow_flex_l	pro_sup_l	wrist_flex_l	wrist_dev_l
     46.35250000	     -6.13024138	     -4.93888170	      5.05499357	      0.87063448	      0.91714788	      0.51163494	     -1.78220510	      1.89310715	    -16.74379730	     15.63581475	     15.63581475	     17.85161478	      1.22370496	     -3.38197550	     29.77430047	     -5.63262665	      2.77190585	     24.13566332	     24.13566332	      3.64955876	    -11.57774993	      1.94752894	     -7.71117291	      4.21904806	      4.69108168	     49.53938521	    -15.46986944	     -6.52933767	     77.94136407	     44.50604809	      0.00000000	      0.00000000	     -8.90424219	     -8.34563325	      2.03977038	     39.46470379	     44.75784093	      0.00000000	      0.00000000
     46.37085714	     -6.25051668	     -4.90157256	      4.61660016	      0.87271269	      0.91764572	      0.50740230	     -1.92228092	      1.38111565	    -16.65654202	     16.09523887	     16.09523887	     17.60269902	      1.67083917	     -3.53581287	     29.55347323	     -5.44521486	      2.65886442	     24.72449369	     24.72449369	      4.46239538	    -12.12501939	      2.13825812	     -7.61321896	      4.15638457	      5.07232038	     48.17265071	    -15.58435303	     -6.61098265	     75.74050114	     44.59069307	      0.00000000	      0.00000000	     -7.45086293	     -8.41997953	      1.26909266	     40.77949817	     44.89023362	      0.00000000	      0.00000000
     46.38921429	     -6.33258937	     -4.86225219	      4.17165512	      0.87473451	      0.91814829	      0.50321978	     -1.97160281	      0.82229689	    -16.58929371	     16.77269416	     16.77269416	     17.21762390	      2.05942503	     -4.29024202	     29.32364563	     -5.27838813	      2.45205355	     25.40470095	     25.40470095	      5.82476555	    -12.31316986	      3.60269043	     -7.55033898	      4.09875489	      4.28632815	     47.69830443	    -14.27924004	     -6.35855399	     71.56567444	     44.78020504	      0.00000000	      0.00000000	     -6.91265922	     -8.36489252	     -1.21895245	     42.95104267	     45.27590693	      0.00000000	      0.00000000
     46.40757143	     -6.42771627	     -4.84363178	      3.69872801	      0.87665481	      0.91858839	      0.49911507	     -1.74969796	      0.23625099	    -16.32621853	     17.90417528	     17.90417528	     16.92807908	      2.09055504	     -4.66690743	     28.99202891	     -5.15754937	      2.16430277	     25.81303240	     25.81303240	      6.47637490	    -12.64251416	      3.44894625	     -7.51549907	      4.06997841	      4.67994259	     45.87374442	    -14.52457755	     -6.23508862	     69.76110683	     44.83747078	      0.00000000	      0.00000000	     -5.21290272	     -8.57047345	     -1.57307905	     43.88933329	     45.35041196	      0.00000000	      0.00000000
     46.42592857	     -6.50866374	     -4.83412156	      3.22349344	      0.87847615	      0.91900814	      0.49506695	     -1.26750939	     -0.41191399	    -16.02907020	     19.51429081	     19.51429081	     16.52663219	      1.91219359	     -5.42818139	     28.61319532	     -5.05553773	      1.82909785	     26.14219784	     26.14219784	      7.12355697	    -12.89471718	      3.41512981	     -7.49339688	      4.05006635	      4.88877182	     44.09312951	    -14.57543522	     -6.05148438	     67.47824342	     44.90917713	      0.00000000	      0.00000000	     -3.53176270	     -8.84234408	     -1.83656016	     44.76549972	     45.41502241	      0.00000000	      0.00000000
     46.44428571	     -6.54373465	     -4.83883165	      2.77493397	      0.88016942	      0.91947560	      0.49104923	     -0.67745388	     -1.03258695	    -15.55926621	     21.25859556	     21.25859556	     15.12717326	      0.96886143	     -8.57586989	     28.21235290	     -4.95414069	      1.53208997	     26.51291605	     26.51291605	      8.05086198	    -13.00192352	      4.07850864	     -7.44472246	      4.07638428	      4.34001612	     43.22662271	    -13.80274790	     -5.39762817	     62.69953162	     45.07561790	      0.00000000	      0.00000000	     -2.15267437	     -9.32409773	     -2.01012867	     45.37276052	     45.50916763	      0.00000000	      0.00000000
     46.46264286	     -6.63455837	     -4.82020865	      2.27675155	      0.88164184	      0.91979969	      0.48712803	      0.51638532	     -1.83371098	    -15.03879454	     24.05613660	     24.05613660	     14.38072494	      0.09610634	     -9.78850452	     27.78078179	     -4.85994482	      1.11322210	     26.67054220	     26.67054220	      8.61491414	    -13.11045034	      3.94380784	     -7.47943849	      4.05240732	      4.47897817	     41.02343601	    -13.87231060	     -5.10195087	     60.82877873	     45.12470031	      0.00000000	      0.00000000	     -0.39314204	     -9.68736155	     -2.16922593	     46.10042921	     45.56101131	      0.00000000	      0.00000000
     46.48100000	     -6.55310222	     -4.85475268	      1.86489165	      0.88309559	      0.92033732	      0.48327506	      1.60811364	     -2.41978958	    -14.14523548	     26.75216939	     26.75216939	     12.06999794	     -2.42422020	    -14.15595022	     27.24958756	     -4.77933598	      0.84129809	     26.96286495	     26.96286495	      9.31523686	    -13.28808618	      4.23171645	     -7.57395467	      4.12438811	      4.25042054	     39.47096352	    -13.68410423	     -4.29489426	     56.61925142	     45.25152904	      0.00000000	      0.00000000	      1.58172954	    -10.23725308	     -1.53906809	     45.81069669	     45.56404315	      0.00000000	      0.00000000
     46.49935714	     -6.49839677	     -4.74245901	      1.43277343	      0.88435731	      0.92072353	      0.47938922	      3.27820794	     -3.40671130	    -13.57639095	     30.58840066	     30.58840066	     10.81150907	     -3.74960943	    -15.33875070	     26.66038251	     -4.56681087	      0.41923340	     27.07829123	     27.07829123	      9.83199379	    -13.34668425	      4.06104488	     -7.78324068	      4.03622959	      4.01095847	     36.99197362	    -13.48558644	     -3.99153246	     54.99417017	     45.28685765	      0.00000000	      0.00000000	      3.25885895	    -10.79294483	     -1.60340823	     46.33946130	     45.60051325	      0.00000000	      0.00000000
     46.51771429	     -6.46801450	     -4.77020916	      1.00508467	      0.88539646	      0.92103121	      0.47578482	      5.10358530	     -3.96752309	    -12.39989543	     34.23766999	     34.23766999	      7.59318653	     -7.56176994	    -19.91575722	     26.18111106	     -4.47972052	      0.13168678	     27.29009809	     27.29009809	     10.46508910	    -13.53130246	      4.32756556	     -7.82867538	      4.11798307	      3.80971221	     35.18743158	    -13.31556035	     -3.22486939	     50.55377785	     45.41768115	      0.00000000	      0.00000000	      5.43797668	    -11.51166103	     -0.24021521	     45.52894221	     45.53819270	      0.00000000	      0.00000000
     46.53607143	     -6.40464738	     -4.69726929	      0.58455367	      0.88630516	      0.92114628	      0.47212706	      7.30933799	     -4.80905035	    -11.58408732	     38.73227949	     38.73227949	      5.59910342	     -9.68375918	    -20.39807597	     25.66063896	     -4.27533492	     -0.18284334	     27.47089947	     27.47089947	     10.94152193	    -13.77448600	      4.22082945	     -8.03097433	      4.11529534	      3.63797390	     32.47559384	    -13.23874014	     -2.96704863	     48.65938423	     45.46256750	      0.00000000	      0.00000000	      7.16003186	    -12.02043823	     -0.18155615	     46.03696220	     45.56672551	      0.00000000	      0.00000000
     46.55442857	     -6.24339099	     -4.69024072	      0.17660545	      0.88707819	      0.92127041	      0.46877460	      9.52808918	     -5.32306541	    -10.41903967	     43.13043119	     43.13043119	      2.93858831	    -12.84440879	    -21.02768726	     25.11992828	     -4.14461143	     -0.41996196	     27.78510385	     27.78510385	     11.59497352	    -14.01220980	      4.45091280	     -8.26997524	      4.20034867	      3.45186696	     30.37914663	    -13.05180828	     -2.61972140	     44.62450037	     45.59131181	      0.00000000	      0.00000000	      9.34235464	    -12.75557747	      1.34029812	     45.27588833	     45.48831895	      0.00000000	      0.00000000
     46.57278571	     -6.00775947	     -4.52078723	     -0.20047538	      0.88782023	      0.92120885	      0.46535878	     11.80134933	     -6.13362332	     -9.62802739	     47.65907501	     47.65907501	      0.70760599	    -14.72010377	    -20.39428843	     24.52595063	     -3.82997673	     -0.71713542	     28.13380238	     28.13380238	     12.08914255	    -14.30578536	      4.29668852	     -8.70141041	      4.09885175	      3.00931837	     27.54113923	    -12.83352692	     -2.45343859	     42.97076852	     45.62863470	      0.00000000	      0.00000000	     10.97368807	    -13.40948706	      1.28559370	     45.78548348	     45.52213260	      0.00000000	      0.00000000
